PathFileType	4	(X/Y/Z)	./resultDataOpenSim/trcMotMarkerGrf/sub06/qtm-15-05.trc
DataRate	CameraRate	NumFrames	NumMarkers	Units	OrigDataRate	OrigDataStartFrame	OrigNumFrames
250.000000	250.000000	11	24	m	250.000000	129	513
Frame#	Time	L.Toe.Tip			R.Toe.Tip			L.Ankle.Lat			R.Ankle.Lat			L.Ankle.Med			R.Ankle.Med			L.Heel			R.Heel			L.Knee.Lat			R.Knee.Lat			L.Knee.Med			R.Knee.Med			L.Thigh.Upper			R.Thigh.Upper			L.ASIS			R.ASIS			V.Sacral			L.Acromium			R.Acromium			C7			L.Elbow			R.Elbow			L.Wrist.Lat			R.Wrist.Lat
		X1	Y1	Z1	X2	Y2	Z2	X3	Y3	Z3	X4	Y4	Z4	X5	Y5	Z5	X6	Y6	Z6	X7	Y7	Z7	X8	Y8	Z8	X9	Y9	Z9	X10	Y10	Z10	X11	Y11	Z11	X12	Y12	Z12	X13	Y13	Z13	X14	Y14	Z14	X15	Y15	Z15	X16	Y16	Z16	X17	Y17	Z17	X18	Y18	Z18	X19	Y19	Z19	X20	Y20	Z20	X21	Y21	Z21	X22	Y22	Z22	X23	Y23	Z23	X24	Y24	Z24

129	0.512	-0.32970455	0.069958385	-0.10218316	-0.69666151	0.035668566	0.056296267	-0.45297534	0.095944283	-0.10838441	-0.83079552	0.068854346	0.06980579	-0.44076545	0.11306185	-0.023684488	-0.805657	0.086895528	-0.015539409	-0.51690619	0.062126308	-0.050679121	-0.88382276	0.049071063	0.0042841846	-0.39695378	0.47187653	-0.12691024	-0.70408312	0.43491621	0.10968348	-0.41075383	0.47028859	-0.0059595694	-0.73568992	0.43771853	-0.020359465	-0.58956785	0.821016	-0.17140138	-0.63507856	0.79482584	0.16618772	-0.52964621	0.86491337	-0.11384467	-0.53367769	0.85006152	0.12919811	-0.71836525	0.93385994	0.0049368968	-0.59607394	1.3381267	-0.17829723	-0.57959296	1.3305526	0.18096674	-0.66474375	1.3695461	0.0035544767	-0.68481697	1.0314573	-0.23156518	-0.60197366	1.015931	0.27598662	-0.54189074	0.83056067	-0.26320798	-0.37845639	0.9017749	0.26694974
130	0.516	-0.30901424	0.071862215	-0.10131592	-0.69662393	0.03564181	0.056278987	-0.43303704	0.094266557	-0.10822998	-0.83061045	0.069359569	0.069611835	-0.42182268	0.11169879	-0.0233858	-0.80521412	0.087261759	-0.015695184	-0.49623361	0.058527243	-0.05077118	-0.88359682	0.049811787	0.0039817487	-0.38917569	0.47153243	-0.12603327	-0.70168608	0.43460496	0.10989063	-0.40330285	0.46953256	-0.0049745205	-0.73270755	0.43753521	-0.020324587	-0.58275531	0.81965894	-0.17126473	-0.63004372	0.79367306	0.16608855	-0.52297584	0.86327053	-0.11383607	-0.52779299	0.84819808	0.12973957	-0.71130764	0.93200129	0.0053697905	-0.58999412	1.3365252	-0.17835727	-0.57315331	1.3291244	0.18108373	-0.65836399	1.3680914	0.0037272627	-0.67996365	1.0303304	-0.23159219	-0.59330896	1.0144127	0.27671024	-0.53826435	0.82869114	-0.26415239	-0.36821392	0.90356473	0.26580514
131	0.52	-0.28844405	0.073891595	-0.10036405	-0.69658042	0.035603011	0.056254647	-0.41314568	0.09288972	-0.10816445	-0.83041346	0.0698792	0.06944892	-0.40289869	0.11060568	-0.023208329	-0.80477174	0.08763177	-0.015839515	-0.47557678	0.055292203	-0.050990482	-0.88338734	0.050593447	0.0037520293	-0.38159916	0.47102143	-0.12521852	-0.69916206	0.43427108	0.11008914	-0.39600022	0.46859878	-0.0040668007	-0.72959733	0.43727523	-0.020299908	-0.5759466	0.81818472	-0.17113748	-0.62484168	0.79254133	0.16643528	-0.5162504	0.86152211	-0.11386051	-0.52185674	0.84631795	0.13025698	-0.70495944	0.93029176	0.0060913059	-0.58396131	1.3348531	-0.17845542	-0.56667028	1.3276218	0.18119807	-0.65203114	1.3667253	0.0038646407	-0.67505119	1.0291245	-0.23161698	-0.58463038	1.0128361	0.27741066	-0.53474221	0.82671059	-0.26514578	-0.35800028	0.90529045	0.26462268
132	0.524	-0.26801995	0.076032081	-0.099331971	-0.69653281	0.035537144	0.05622245	-0.39336542	0.091836024	-0.10819041	-0.83018972	0.070397413	0.069300381	-0.38408283	0.10976366	-0.023124993	-0.80431787	0.088001047	-0.01596238	-0.45497857	0.052443023	-0.051376479	-0.88319902	0.051381599	0.0035846973	-0.37421739	0.47034923	-0.12446132	-0.69649965	0.43390611	0.11027623	-0.38885369	0.46750946	-0.0032520728	-0.72636762	0.43694474	-0.020287124	-0.56916777	0.81659868	-0.17102388	-0.61936802	0.79140088	0.16752422	-0.50946242	0.85968163	-0.11390877	-0.51588658	0.84442928	0.13075842	-0.69927947	0.92875604	0.0068778906	-0.57784677	1.3331116	-0.1785464	-0.56014822	1.3260488	0.18131016	-0.64575939	1.3654442	0.0039224145	-0.67003909	1.0278474	-0.23160186	-0.57594686	1.0112067	0.27808194	-0.53132001	0.82462757	-0.26619184	-0.34778199	0.90693267	0.26337308
133	0.528	-0.24775135	0.078274545	-0.098236243	-0.69648734	0.035447295	0.056186344	-0.3737432	0.091115525	-0.10828668	-0.82992221	0.070928632	0.069171546	-0.36546821	0.10915237	-0.02314636	-0.80384631	0.088371211	-0.016062147	-0.43449205	0.049991117	-0.051948577	-0.88303953	0.052159763	0.0034723173	-0.36691387	0.46953684	-0.12371988	-0.69367196	0.43351118	0.11046167	-0.3818197	0.46627808	-0.0024833055	-0.72302265	0.43655561	-0.020283231	-0.56239112	0.81490695	-0.17091773	-0.61370741	0.79025376	0.16950679	-0.5025791	0.85776199	-0.11396337	-0.50989717	0.8425243	0.13125716	-0.69372884	0.92726866	0.0073486131	-0.57164513	1.3313077	-0.1786264	-0.55359594	1.3244167	0.18141805	-0.63953559	1.3641567	0.0039238306	-0.664886	1.0265044	-0.23149875	-0.5672708	1.0095296	0.27872134	-0.52793987	0.82246958	-0.26727222	-0.33763293	0.90849319	0.26206108
134	0.532	-0.22767334	0.080594357	-0.097105323	-0.69645118	0.035351208	0.056155031	-0.35428554	0.0907402	-0.10841854	-0.82960377	0.071489491	0.069075415	-0.34706854	0.10878087	-0.023289459	-0.80335454	0.08874856	-0.01613673	-0.41420689	0.047957705	-0.052646801	-0.88289735	0.052943787	0.0034059928	-0.35953515	0.46860967	-0.12292671	-0.69065732	0.43309849	0.11065901	-0.37486046	0.46490981	-0.0017006188	-0.7195701	0.43612224	-0.02027875	-0.55552859	0.81312809	-0.17081056	-0.60799319	0.78909973	0.17219149	-0.49558385	0.8557691	-0.11401508	-0.50388543	0.84059805	0.1317578	-0.68784784	0.92573089	0.0073821343	-0.56539921	1.3294495	-0.17871392	-0.54702573	1.3227378	0.1815234	-0.633303	1.3627763	0.0039100929	-0.65958034	1.0250936	-0.23128545	-0.55860946	1.0078093	0.27933215	-0.52455941	0.82025724	-0.26837785	-0.32764432	0.90997832	0.26071357
135	0.536	-0.20785484	0.082953008	-0.095962476	-0.69642798	0.035259783	0.056136074	-0.33497704	0.090715476	-0.10854497	-0.82925076	0.072076931	0.069017741	-0.32887999	0.10866392	-0.023547222	-0.80284042	0.089141632	-0.016177774	-0.39425412	0.046403052	-0.053281246	-0.88274929	0.053771415	0.0033941889	-0.35206904	0.46756674	-0.12205191	-0.68748068	0.43267233	0.11086341	-0.36795604	0.46340923	-0.00086620221	-0.71601912	0.43565844	-0.02026394	-0.54847593	0.81129064	-0.17069878	-0.6022924	0.78790747	0.17506968	-0.48851539	0.85370257	-0.11406109	-0.49784816	0.83865799	0.13225891	-0.68153285	0.92417486	0.007178451	-0.55913455	1.3275481	-0.1788227	-0.54043916	1.3210192	0.18162601	-0.62700684	1.3612874	0.0039010769	-0.65414331	1.0236098	-0.23097697	-0.54995468	1.0060523	0.27991993	-0.52118958	0.81799109	-0.26951174	-0.31782936	0.91139118	0.25937336
136	0.54	-0.18837191	0.085329171	-0.094824606	-0.69641259	0.035176133	0.056128834	-0.31585152	0.091017976	-0.10864134	-0.82888885	0.072681332	0.068997162	-0.31094884	0.1088083	-0.023877737	-0.80230606	0.089556566	-0.01617945	-0.37476293	0.045386168	-0.053643443	-0.88259407	0.054672064	0.0034778294	-0.34467012	0.46637821	-0.12112768	-0.68421461	0.43222014	0.11104861	-0.36108389	0.46178707	3.6891725e-05	-0.71237002	0.43517749	-0.020236017	-0.54117708	0.80941372	-0.17057842	-0.59661177	0.78662739	0.17749789	-0.48141745	0.85156682	-0.11408939	-0.49178542	0.83672248	0.13274863	-0.67479443	0.92269289	0.0069578869	-0.55285428	1.3256156	-0.17895518	-0.53382314	1.3192633	0.18171936	-0.62063229	1.3597227	0.0038929848	-0.64861336	1.0220542	-0.2306155	-0.54127958	1.0042646	0.28048268	-0.51786824	0.81566324	-0.27067228	-0.3081389	0.9127376	0.25808107
137	0.544	-0.16928869	0.087729052	-0.093709743	-0.69639176	0.035107439	0.056126542	-0.29702149	0.091591816	-0.10872304	-0.8285318	0.073306865	0.069011824	-0.29333688	0.10922016	-0.024218017	-0.801762	0.089994032	-0.016146985	-0.35578586	0.044867286	-0.053760941	-0.8824385	0.055653176	0.0036627461	-0.33743692	0.46503135	-0.12019192	-0.68091063	0.4317301	0.11119707	-0.3542203	0.46005921	0.0010097343	-0.70861623	0.43469495	-0.020200055	-0.53366083	0.80749428	-0.17044453	-0.5909501	0.78523152	0.17893306	-0.4742736	0.8493796	-0.11408025	-0.48568951	0.83482145	0.13319192	-0.66763105	0.92132821	0.0067617829	-0.54655067	1.3236579	-0.17910589	-0.5271692	1.3174715	0.18179681	-0.61419631	1.3581203	0.0038737576	-0.64302976	1.0204399	-0.23026795	-0.53255162	1.0024528	0.2810092	-0.51459604	0.81327534	-0.27184222	-0.29850976	0.91401795	0.25683085
138	0.548	-0.15066541	0.090154204	-0.092632074	-0.696356	0.035058997	0.056124558	-0.27862867	0.092371735	-0.10882921	-0.82817297	0.073970235	0.069061769	-0.27608135	0.10989277	-0.024531963	-0.8012192	0.090454532	-0.0160921	-0.3372871	0.044690637	-0.053963803	-0.88226332	0.056709946	0.0038684121	-0.33029027	0.46355322	-0.11924619	-0.67754328	0.43120703	0.1113236	-0.34734955	0.45824147	0.0020385765	-0.70475525	0.43422558	-0.020162162	-0.52603107	0.80552092	-0.1703018	-0.58534389	0.78376225	0.17921296	-0.46704642	0.84716177	-0.11402325	-0.47954534	0.83300355	0.13353548	-0.66012037	0.92002206	0.0064668732	-0.54021776	1.3216767	-0.17926484	-0.52049653	1.3156471	0.18185871	-0.60772199	1.3565031	0.003838611	-0.63741406	1.0187889	-0.22999945	-0.52375149	1.0006239	0.28148391	-0.5113188	0.81084354	-0.27299522	-0.28890662	0.9152234	0.25558197
139	0.552	-0.13256882	0.092587965	-0.091594754	-0.69630666	0.035025588	0.05612257	-0.26077239	0.093308191	-0.10897706	-0.82778396	0.074684858	0.069146358	-0.2592106	0.11079422	-0.024823651	-0.80067798	0.09094309	-0.016022032	-0.31921143	0.044693462	-0.054608751	-0.88204562	0.057833537	0.0040174171	-0.32309509	0.46199089	-0.11827635	-0.67404056	0.43066114	0.11146079	-0.34046357	0.45634831	0.0030987314	-0.70078906	0.43377439	-0.020123996	-0.51843385	0.80348824	-0.17016966	-0.57986802	0.7823367	0.17870964	-0.45975046	0.8449218	-0.11392293	-0.47334444	0.83131583	0.13374685	-0.65242924	0.9186572	0.0059094896	-0.53385874	1.3196765	-0.17942249	-0.51384103	1.3137959	0.18190863	-0.60122724	1.3548755	0.0037940511	-0.63175629	1.0171229	-0.2298175	-0.51488342	0.99878282	0.28189206	-0.50795735	0.80839786	-0.27410346	-0.27934335	0.91634929	0.2543112
